<svg width="13" height="16" viewBox="0 0 13 16" fill="none" xmlns="http://www.w3.org/2000/svg">
<path d="M12.1675 7.17432L3.25563 15.1123C3.22493 15.1391 3.18579 15.1608 3.14117 15.1756C3.09655 15.1904 3.04763 15.198 2.99812 15.1978C2.94586 15.1987 2.89418 15.1902 2.84817 15.1731C2.78026 15.149 2.72675 15.1092 2.69697 15.0607C2.66718 15.0122 2.66301 14.958 2.68519 14.9076L5.08755 9.42657H0.321941C0.261746 9.42644 0.202777 9.41481 0.15157 9.39297C0.100364 9.37113 0.0589196 9.33992 0.0318319 9.30282C0.00708194 9.26705 -0.00354098 9.22741 0.00103822 9.1879C0.00561742 9.14839 0.0252362 9.11041 0.0579091 9.07782L8.70251 0.890068C8.74524 0.849264 8.80656 0.819531 8.87666 0.805626C8.94677 0.791721 9.0216 0.794448 9.0892 0.81337C9.15679 0.832291 9.21323 0.866315 9.2495 0.909998C9.28577 0.95368 9.29977 1.0045 9.28925 1.05432L8.14511 6.81207H11.91C11.9711 6.81198 12.031 6.82375 12.0829 6.84603C12.1347 6.86831 12.1765 6.9002 12.2034 6.93807C12.2299 6.97584 12.2406 7.01798 12.2343 7.05973C12.228 7.10148 12.2048 7.14117 12.1675 7.17432Z" fill="#FF6600"/>
</svg>
