<svg width="16" height="16" viewBox="0 0 16 16" fill="none" xmlns="http://www.w3.org/2000/svg">
<path d="M7.39891 2.53583H3.60791C2.35169 2.53583 1.33331 3.55417 1.33331 4.81036V12.3922C1.33331 13.6484 2.35169 14.6667 3.60791 14.6667H11.1899C12.4461 14.6667 13.4645 13.6484 13.4645 12.3922L13.4645 8.60127M5.12431 10.8758L7.88288 10.3199C8.02933 10.2904 8.16379 10.2183 8.26939 10.1127L14.4447 3.93415C14.7408 3.63792 14.7406 3.15775 14.4443 2.86177L13.1361 1.55514C12.8399 1.25928 12.36 1.25948 12.064 1.55559L5.88805 7.73475C5.78265 7.8402 5.71068 7.97439 5.68115 8.12052L5.12431 10.8758Z" stroke="white" stroke-width="1.2" stroke-linecap="round" stroke-linejoin="round"/>
</svg>
