<svg width="24" height="24" viewBox="0 0 24 24" fill="none" xmlns="http://www.w3.org/2000/svg">
<path fill-rule="evenodd" clip-rule="evenodd" d="M2.25 7.33333C2.25 5.6564 3.56767 4.25 5.25 4.25H18.75C20.4323 4.25 21.75 5.6564 21.75 7.33333V16.6667C21.75 18.3436 20.4323 19.75 18.75 19.75H5.25C3.56767 19.75 2.25 18.3436 2.25 16.6667V7.33333ZM3.99128 6.47064C3.83949 6.71601 3.75 7.01071 3.75 7.33333V16.6667C3.75 17.5671 4.44705 18.25 5.25 18.25H18.75C19.553 18.25 20.25 17.5671 20.25 16.6667V7.33333C20.25 7.01071 20.1605 6.71601 20.0087 6.47064C20.1346 6.78369 20.0362 7.15367 19.7499 7.35924L13.0778 12.1495C12.4311 12.6138 11.5689 12.6138 10.9222 12.1495L4.25009 7.35924C3.96376 7.15367 3.86538 6.78369 3.99128 6.47064ZM4.30407 6.1052C4.55254 5.95762 4.87513 5.96143 5.12491 6.14076L11.797 10.931C11.9209 11.0199 12.0791 11.0199 12.203 10.931L18.8751 6.14076C19.1249 5.96143 19.4475 5.95762 19.6959 6.1052C19.4343 5.88151 19.1024 5.75 18.75 5.75H5.25C4.89764 5.75 4.56568 5.88151 4.30407 6.1052Z" fill="#010B09"/>
</svg>
