<svg width="20" height="20" viewBox="0 0 20 20" fill="none" xmlns="http://www.w3.org/2000/svg">
<path d="M12 6.03999L8 3.23999V13.96L12 16.76V6.03999ZM13 16.76L17.787 13.41C17.8529 13.3638 17.9066 13.3024 17.9437 13.2311C17.9808 13.1597 18.0001 13.0804 18 13V3.49999C18.0001 3.40845 17.9751 3.31864 17.9276 3.24035C17.8802 3.16205 17.8122 3.09828 17.731 3.05599C17.6498 3.01369 17.5586 2.9945 17.4672 3.00049C17.3759 3.00649 17.288 3.03745 17.213 3.08999L13 6.03999V16.76ZM2.213 6.58999L7 3.23999V13.96L2.787 16.91C2.71204 16.9625 2.6241 16.9935 2.53275 16.9995C2.44141 17.0055 2.35017 16.9863 2.26899 16.944C2.1878 16.9017 2.11979 16.8379 2.07235 16.7596C2.02492 16.6813 1.9999 16.5915 2 16.5V6.99999C1.99991 6.91956 2.01922 6.84029 2.0563 6.76891C2.09338 6.69754 2.14714 6.63616 2.213 6.58999Z" fill="#D128A1"/>
</svg>
