<svg width="20" height="20" viewBox="0 0 20 20" fill="none" xmlns="http://www.w3.org/2000/svg">
<path fill-rule="evenodd" clip-rule="evenodd" d="M4.16667 1.66667L6.66667 1.66667C8.03651 1.66667 9.16667 2.76493 9.16667 4.14383L9.16668 6.94993C9.16668 8.32884 8.03651 9.4271 6.66668 9.4271H4.16668C2.79684 9.4271 1.66668 8.32884 1.66668 6.94994L1.66667 4.14383C1.66667 2.76493 2.79684 1.66667 4.16667 1.66667ZM6.66667 3.33333L4.16667 3.33333C3.69556 3.33333 3.33334 3.70701 3.33334 4.14383L3.33335 6.94993C3.33335 7.38676 3.69557 7.76043 4.16668 7.76043H6.66668C7.13779 7.76043 7.50001 7.38676 7.50001 6.94994L7.5 4.14383C7.5 3.70701 7.13778 3.33333 6.66667 3.33333ZM13.3333 3.33333C12.8622 3.33333 12.5 3.70701 12.5 4.14383L12.5 6.94993C12.5 7.38676 12.8622 7.76043 13.3333 7.76043H15.8333C16.3045 7.76043 16.6667 7.38676 16.6667 6.94994L16.6667 4.14383C16.6667 3.70701 16.3045 3.33333 15.8333 3.33333L13.3333 3.33333ZM10.8333 4.14383C10.8333 2.76493 11.9635 1.66667 13.3333 1.66667L15.8333 1.66667C17.2032 1.66667 18.3333 2.76493 18.3333 4.14383L18.3333 6.94994C18.3333 8.32884 17.2032 9.4271 15.8333 9.4271H13.3333C11.9635 9.4271 10.8333 8.32884 10.8333 6.94994L10.8333 4.14383ZM4.16668 12.2396C3.69557 12.2396 3.33335 12.6133 3.33335 13.0501L3.33335 15.8562C3.33335 16.293 3.69557 16.6667 4.16668 16.6667H6.66668C7.13779 16.6667 7.50001 16.293 7.50001 15.8562L7.50001 13.0501C7.50001 12.6133 7.13779 12.2396 6.66668 12.2396H4.16668ZM1.66668 13.0501C1.66668 11.6712 2.79684 10.5729 4.16668 10.5729H6.66668C8.03651 10.5729 9.16668 11.6712 9.16668 13.0501L9.16668 15.8562C9.16668 17.2351 8.03652 18.3333 6.66668 18.3333H4.16668C2.79684 18.3333 1.66668 17.2351 1.66668 15.8562L1.66668 13.0501ZM13.3333 12.2396C12.8622 12.2396 12.5 12.6133 12.5 13.0501V15.8562C12.5 16.293 12.8622 16.6667 13.3333 16.6667H15.8333C16.3045 16.6667 16.6667 16.293 16.6667 15.8562V13.0501C16.6667 12.6133 16.3045 12.2396 15.8333 12.2396H13.3333ZM10.8333 13.0501C10.8333 11.6712 11.9635 10.5729 13.3333 10.5729H15.8333C17.2032 10.5729 18.3333 11.6712 18.3333 13.0501V15.8562C18.3333 17.2351 17.2032 18.3333 15.8333 18.3333H13.3333C11.9635 18.3333 10.8333 17.2351 10.8333 15.8562L10.8333 13.0501Z" fill="#D128A1"/>
</svg>
