<svg width="16" height="17" viewBox="0 0 16 17" fill="none" xmlns="http://www.w3.org/2000/svg">
<path d="M5.33696 8.04227C5.33696 6.56825 6.53121 5.37302 8.0048 5.37302C9.47839 5.37302 10.6733 6.56825 10.6733 8.04227C10.6733 9.51628 9.47839 10.7115 8.0048 10.7115C6.53121 10.7115 5.33696 9.51628 5.33696 8.04227ZM3.89443 8.04227C3.89443 10.3131 5.73464 12.1538 8.0048 12.1538C10.275 12.1538 12.1152 10.3131 12.1152 8.04227C12.1152 5.77145 10.275 3.93071 8.0048 3.93071C5.73464 3.93071 3.89443 5.77145 3.89443 8.04227ZM11.3173 3.76769C11.3172 3.95773 11.3735 4.14352 11.479 4.30157C11.5845 4.45963 11.7344 4.58284 11.9099 4.65564C12.0854 4.72843 12.2786 4.74754 12.4649 4.71054C12.6513 4.67354 12.8225 4.58209 12.9568 4.44777C13.0912 4.31345 13.1828 4.14227 13.2199 3.9559C13.2571 3.76953 13.2381 3.57633 13.1655 3.40072C13.0929 3.22512 12.9698 3.07501 12.8119 2.96936C12.654 2.86372 12.4683 2.80729 12.2783 2.80722H12.2779C12.0232 2.80734 11.779 2.90856 11.5989 3.08864C11.4188 3.26873 11.3175 3.51296 11.3173 3.76769ZM4.77086 14.5599C3.99042 14.5243 3.56623 14.3943 3.28434 14.2844C2.91061 14.1389 2.64395 13.9655 2.36359 13.6855C2.08323 13.4054 1.90969 13.139 1.76483 12.7651C1.65494 12.4833 1.52495 12.0588 1.48947 11.2782C1.45066 10.4342 1.44291 10.1806 1.44291 8.04233C1.44291 5.90405 1.4513 5.65122 1.48947 4.8065C1.52501 4.02584 1.65597 3.60223 1.76483 3.31955C1.91033 2.94571 2.08362 2.67898 2.36359 2.39854C2.64357 2.11809 2.90997 1.9445 3.28434 1.7996C3.56611 1.68968 3.99042 1.55965 4.77086 1.52416C5.61463 1.48534 5.86809 1.47759 8.0048 1.47759C10.1415 1.47759 10.3952 1.48598 11.2397 1.52416C12.0201 1.55971 12.4436 1.69071 12.7262 1.7996C13.1 1.9445 13.3666 2.11848 13.647 2.39854C13.9273 2.67859 14.1002 2.94571 14.2457 3.31955C14.3556 3.6014 14.4856 4.02584 14.5211 4.8065C14.5599 5.65122 14.5676 5.90405 14.5676 8.04233C14.5676 10.1806 14.5599 10.4334 14.5211 11.2782C14.4856 12.0588 14.3549 12.4831 14.2457 12.7651C14.1002 13.139 13.9269 13.4057 13.647 13.6855C13.367 13.9653 13.1 14.1389 12.7262 14.2844C12.4445 14.3943 12.0201 14.5244 11.2397 14.5599C10.3959 14.5987 10.1425 14.6064 8.0048 14.6064C5.86713 14.6064 5.61437 14.5987 4.77086 14.5599ZM4.70458 0.0836473C3.85242 0.122466 3.27012 0.257626 2.76159 0.455562C2.23494 0.659967 1.7891 0.934195 1.34359 1.37913C0.898075 1.82407 0.624631 2.27074 0.420284 2.79755C0.222405 3.30654 0.0872843 3.88869 0.0484771 4.7411C0.00902942 5.59485 0 5.86779 0 8.04227C0 10.2167 0.00902942 10.4897 0.0484771 11.3434C0.0872843 12.1959 0.222405 12.778 0.420284 13.287C0.624631 13.8135 0.898139 14.2607 1.34359 14.7054C1.78904 15.1501 2.23494 15.424 2.76159 15.629C3.27108 15.8269 3.85242 15.9621 4.70458 16.0009C5.55853 16.0397 5.83095 16.0494 8.0048 16.0494C10.1786 16.0494 10.4515 16.0403 11.305 16.0009C12.1572 15.9621 12.7392 15.8269 13.248 15.629C13.7743 15.424 14.2205 15.1503 14.666 14.7054C15.1115 14.2605 15.3844 13.8135 15.5893 13.287C15.7872 12.778 15.923 12.1958 15.9611 11.3434C15.9999 10.489 16.009 10.2167 16.009 8.04227C16.009 5.86779 15.9999 5.59485 15.9611 4.7411C15.9223 3.88863 15.7872 3.30622 15.5893 2.79755C15.3844 2.27106 15.1108 1.82478 14.666 1.37913C14.2212 0.93349 13.7743 0.659967 13.2486 0.455562C12.7392 0.257626 12.1572 0.121825 11.3057 0.0836473C10.4522 0.0448288 10.1793 0.0351562 8.00544 0.0351562C5.83159 0.0351562 5.55853 0.0441883 4.70458 0.0836473Z" fill="url(#paint0_linear_113_502)"/>
<defs>
<linearGradient id="paint0_linear_113_502" x1="5.33632" y1="3.37145" x2="11.3425" y2="12.7113" gradientUnits="userSpaceOnUse">
<stop stop-color="#FF6600"/>
<stop offset="1" stop-color="#D128A1"/>
</linearGradient>
</defs>
</svg>
