<svg width="20" height="20" viewBox="0 0 20 20" fill="none" xmlns="http://www.w3.org/2000/svg">
<path fill-rule="evenodd" clip-rule="evenodd" d="M3.85997 1.89559L2.30777 3.44461C2.05353 3.69834 1.92427 3.97583 1.89336 4.33389C1.83693 5.02392 1.9594 5.79534 2.36133 6.86928L2.36212 6.87138C3.01822 8.64056 4.01334 10.3044 5.53193 12.1312C7.35593 14.3037 9.547 16.0143 12.0405 17.2192C12.9715 17.6635 14.1267 18.1391 15.3359 18.2163L15.3379 18.2164C15.3773 18.2191 15.4251 18.2193 15.4988 18.2193C16.0094 18.2193 16.3513 18.0688 16.6631 17.7408C16.8354 17.5414 17.209 17.1616 17.5173 16.8523C17.6814 16.6876 17.8364 16.5337 17.9503 16.421L18.0292 16.3431C18.0552 16.2723 18.0835 16.1819 18.1015 16.0883C18.1304 15.939 18.1182 15.8741 18.1137 15.8562L15.5964 13.344C15.5882 13.3358 15.5803 13.3275 15.5725 13.319C15.5401 13.2836 15.5053 13.2551 15.4767 13.2387C15.4724 13.2362 15.4687 13.2343 15.4656 13.2328C15.4595 13.2354 15.451 13.2394 15.4399 13.2456C15.3996 13.2684 15.3522 13.3059 15.305 13.3531L14.4073 14.249C14.4055 14.2507 14.4036 14.2526 14.4015 14.2547C14.2993 14.3571 13.8733 14.7834 13.1814 14.7834C12.8992 14.7834 12.6387 14.7128 12.3931 14.5903C12.367 14.5772 12.3457 14.565 12.3319 14.5568C12.3229 14.5515 12.3145 14.5463 12.309 14.5429C12.2986 14.5371 12.2883 14.5311 12.2781 14.5248C12.1803 14.4642 12.0577 14.4023 11.8848 14.3161L11.8735 14.3104C11.6968 14.2223 11.4759 14.1121 11.2561 13.973C9.71367 12.9996 8.32669 11.737 7.02389 10.139C7.01436 10.1283 7.00514 10.1172 6.99623 10.106C6.27171 9.18789 5.77186 8.38777 5.41269 7.51944C5.40601 7.50331 5.3999 7.48694 5.39437 7.47038L5.37686 7.41794C5.32459 7.25278 5.24862 6.97106 5.28746 6.63619C5.32724 6.29319 5.47943 5.95659 5.76889 5.65537C5.80663 5.61192 5.83881 5.5844 5.85207 5.57306L5.85421 5.57126C5.95619 5.48003 6.01935 5.4255 6.06297 5.38927C6.08202 5.37345 6.09712 5.3613 6.10981 5.3513C6.11205 5.34903 6.11461 5.34643 6.11751 5.34348C6.13205 5.32868 6.14974 5.31054 6.17387 5.2858C6.20349 5.25544 6.24282 5.21512 6.29798 5.15876C6.3031 5.15353 6.3083 5.14837 6.31358 5.14328C6.39602 5.06385 6.47172 4.98739 6.55449 4.9038C6.59951 4.85834 6.64662 4.81076 6.69804 4.75945C6.79143 4.66625 6.82577 4.60805 6.83768 4.58192C6.82577 4.55578 6.79143 4.49758 6.69804 4.40439L5.43961 3.14853C5.36889 3.07575 5.29793 3.00369 5.22514 2.9299L5.2244 2.92915C5.15203 2.8558 5.07779 2.78054 5.00435 2.70488C4.72641 2.41842 4.47153 2.15991 4.20665 1.91291C4.20046 1.90713 4.19436 1.90125 4.18836 1.89527L4.17462 1.88156C4.13448 1.84149 4.09559 1.81148 4.06336 1.79384C4.04916 1.78608 4.04006 1.78273 4.03543 1.78136C4.02074 1.78463 3.96114 1.80261 3.85997 1.89559ZM18.6633 16.771L19.3383 17.098C19.3008 17.1754 19.2503 17.2458 19.1889 17.3061L19.1394 17.3548L19.0054 17.4871C18.8932 17.5982 18.7407 17.7496 18.5797 17.9112C18.246 18.2459 17.9102 18.5897 17.7919 18.7287C17.7841 18.7379 17.7762 18.7468 17.768 18.7555C17.1574 19.4071 16.4113 19.7193 15.4988 19.7193H15.4909C15.4273 19.7194 15.333 19.7194 15.2393 19.7132C13.7292 19.6166 12.3574 19.0325 11.3929 18.5722L11.3897 18.5706C8.70021 17.2713 6.34005 15.4269 4.38186 13.0942L4.37957 13.0915C2.7757 11.1623 1.6829 9.35338 0.956097 7.39399C0.506755 6.19308 0.317841 5.19181 0.398504 4.20974L0.398718 4.20713C0.459594 3.49633 0.742506 2.88753 1.2482 2.38287L2.80987 0.824384C2.81546 0.818809 2.82113 0.813323 2.82689 0.807927C3.13726 0.517156 3.54977 0.280762 4.03578 0.280762C4.62469 0.280762 5.04081 0.626818 5.2342 0.819813L5.23907 0.82467C5.52941 1.09591 5.80299 1.37392 6.08078 1.66023C6.08073 1.66018 6.08082 1.66027 6.08078 1.66023C6.14927 1.73078 6.21924 1.80173 6.29223 1.87572L6.29483 1.87835C6.36509 1.94957 6.43808 2.02356 6.5114 2.09898L6.50736 2.09494L5.97757 2.62581L6.51546 2.10315C6.51411 2.10176 6.51275 2.10037 6.5114 2.09898L7.75761 3.34264C8.07157 3.65595 8.34191 4.06901 8.34191 4.58192C8.34191 5.09482 8.07157 5.50788 7.75761 5.82119C7.71969 5.85904 7.6792 5.89991 7.63717 5.94233C7.54917 6.03115 7.45445 6.12676 7.36248 6.21562C7.36495 6.21309 7.36745 6.21054 7.36997 6.20797L6.83397 5.68337L7.35437 6.22345C7.35707 6.22085 7.35978 6.21823 7.36248 6.21562C7.31623 6.26288 7.27876 6.30129 7.24916 6.33163C7.22248 6.35898 7.20218 6.37978 7.18761 6.39461L7.18464 6.39765C7.15724 6.42555 7.11983 6.46366 7.07386 6.5013C7.06353 6.50976 7.0547 6.51664 7.04999 6.5203L7.04045 6.5277C7.0376 6.52993 7.03216 6.5342 7.02139 6.54315C6.99895 6.56178 6.95438 6.59986 6.86724 6.67765C6.86849 6.67636 6.86975 6.67507 6.871 6.67377C6.87482 6.6701 6.87878 6.66624 6.88283 6.66219C6.93004 6.61083 6.96939 6.5526 7.00069 6.49013C6.96269 6.56599 6.91694 6.62318 6.88159 6.66095L6.35304 6.13132L6.85282 6.68991C6.84147 6.70065 6.83285 6.70802 6.82824 6.71196L6.82738 6.71269C6.82367 6.71587 6.82057 6.71844 6.81948 6.71933M6.81948 6.71933L6.82145 6.71772L6.82824 6.71196C6.83501 6.70629 6.84569 6.69734 6.85949 6.6846C6.85926 6.68481 6.85971 6.68439 6.85949 6.6846C6.81316 6.73083 6.79471 6.76331 6.78724 6.77839C6.78013 6.79274 6.7783 6.80183 6.77747 6.80902C6.77514 6.82913 6.77682 6.86856 6.80546 6.96029L6.80337 6.95403L6.80223 6.95441C6.80108 6.95164 6.79994 6.94887 6.79879 6.9461L6.67999 6.99524L6.09201 7.19163L6.57365 7.03923L6.10574 7.23277L6.81711 6.99516L6.80859 6.96968C7.0968 7.65931 7.50649 8.32867 8.15703 9.15552C8.14497 9.14156 8.13239 9.12805 8.11933 9.11502L8.11475 9.11045L7.58498 9.64134L8.17373 9.17671C8.17277 9.1755 8.17181 9.17429 8.17085 9.17307C9.39136 10.6735 10.6652 11.8264 12.0566 12.7045C12.2073 12.7998 12.3669 12.8802 12.5545 12.9739L12.5696 12.9814C12.7171 13.055 12.8909 13.1417 13.0484 13.2375C13.0369 13.2311 13.0232 13.2237 13.0079 13.2161L12.673 13.8872L13.0675 13.2504C13.082 13.2578 13.0924 13.2639 13.0966 13.2664C13.0944 13.265 13.0892 13.2617 13.0816 13.2571C13.1351 13.2814 13.1633 13.2834 13.1814 13.2834C13.2086 13.2834 13.2325 13.2762 13.2607 13.2595C13.2927 13.2406 13.3169 13.2179 13.3477 13.1872L14.2454 12.2914C14.4348 12.1023 14.8674 11.7295 15.4667 11.7295C16.0495 11.7295 16.4642 12.0756 16.6667 12.293L16.656 12.2822L16.1262 12.8131L16.3334 12.6238L16.6799 12.3072C16.6756 12.3025 16.6712 12.2978 16.6667 12.293L19.1859 14.807L18.6588 15.3405L19.1885 14.8096L19.1878 14.8089C19.7073 15.3241 19.6411 16.0271 19.5743 16.3728C19.5353 16.575 19.4777 16.7515 19.4317 16.8751C19.4083 16.9379 19.3868 16.9898 19.3704 17.0275C19.3621 17.0465 19.3551 17.062 19.3497 17.0739L19.3427 17.0888L19.3402 17.0941L19.3391 17.0962L19.3383 17.098C19.3382 17.0982 19.3383 17.098 18.6633 16.771M13.0675 13.2504C13.061 13.2464 13.0549 13.2415 13.0484 13.2375C13.0564 13.2421 13.0634 13.2461 13.0691 13.2495C13.0735 13.2521 13.0778 13.2547 13.0816 13.2571C13.0771 13.255 13.0724 13.2528 13.0675 13.2504ZM6.80682 6.96544C6.80628 6.96373 6.80598 6.96196 6.80546 6.96029L6.80859 6.96968C6.808 6.96827 6.80741 6.96685 6.80682 6.96544Z" fill="#010B09"/>
</svg>
