<svg width="25" height="31" viewBox="0 0 25 31" fill="none" xmlns="http://www.w3.org/2000/svg">
<g filter="url(#filter0_d_1_1991)">
<path d="M12.5 2C10.2466 2.0029 8.08631 2.87303 6.49289 4.41957C4.89948 5.96612 4.00299 8.06285 4 10.25C4 16.1728 11.9192 23.5909 12.2556 23.9037C12.3211 23.9655 12.4087 24 12.5 24C12.5913 24 12.6789 23.9655 12.7444 23.9037C13.0808 23.5909 21 16.1728 21 10.25C20.997 8.06285 20.1005 5.96612 18.5071 4.41957C16.9137 2.87303 14.7534 2.0029 12.5 2V2ZM12.5 14.0312C11.7295 14.0312 10.9763 13.8095 10.3356 13.394C9.69492 12.9785 9.19559 12.3879 8.90072 11.697C8.60585 11.0061 8.5287 10.2458 8.67902 9.51231C8.82935 8.77882 9.20039 8.10506 9.74523 7.57625C10.2901 7.04743 10.9842 6.6873 11.74 6.5414C12.4957 6.3955 13.279 6.47038 13.9909 6.75658C14.7027 7.04277 15.3112 7.52742 15.7393 8.14924C16.1673 8.77107 16.3958 9.50213 16.3958 10.25C16.3952 11.2527 15.9846 12.2141 15.2541 12.9231C14.5236 13.6321 13.533 14.0306 12.5 14.0312Z" fill="#FF6600"/>
<ellipse cx="12.5222" cy="10.0996" rx="6.35287" ry="6.16601" fill="white"/>
<path fill-rule="evenodd" clip-rule="evenodd" d="M11.7501 13.9661L10.118 13.049C10.0578 13.0154 10.0242 12.9532 10.0241 12.89V10.8554L8.21533 9.83906C8.15504 9.80539 8.12133 9.74398 8.12122 9.68084V7.83494C8.12122 7.69309 8.27973 7.60746 8.40283 7.67693L11.9526 9.67065C12.0425 9.72124 12.0425 9.7203 12.0425 9.82996V13.8157C12.0425 13.9658 11.8906 14.0451 11.7501 13.9661Z" fill="#FF6600"/>
<path fill-rule="evenodd" clip-rule="evenodd" d="M12.7345 13.9661L14.3667 13.049C14.4269 13.0154 14.4605 12.9532 14.4606 12.89V10.8554L16.2693 9.83906C16.3296 9.80539 16.3634 9.74398 16.3635 9.68084V7.83494C16.3635 7.69309 16.2049 7.60746 16.0818 7.67693L12.5321 9.67065C12.4421 9.72124 12.4421 9.7203 12.4421 9.82996V13.8157C12.4421 13.9658 12.5941 14.0451 12.7345 13.9661Z" fill="#D128A1"/>
<path fill-rule="evenodd" clip-rule="evenodd" d="M15.8688 6.93894L14.2413 6.02439C14.1812 5.99043 14.109 5.99324 14.0528 6.02472L12.2423 7.04205L10.4361 6.02713C10.3777 5.99371 10.2995 5.99482 10.2432 6.02691L8.61921 6.93944C8.48587 7.01438 8.4895 7.20204 8.61289 7.27105L12.1432 9.25469C12.2034 9.28855 12.2806 9.28887 12.3417 9.25455L15.8613 7.27687C15.9949 7.20179 16.002 7.01374 15.8688 6.93894Z" fill="url(#paint0_linear_1_1991)"/>
</g>
<defs>
<filter id="filter0_d_1_1991" x="0.21875" y="0.96875" width="24.5625" height="29.5625" filterUnits="userSpaceOnUse" color-interpolation-filters="sRGB">
<feFlood flood-opacity="0" result="BackgroundImageFix"/>
<feColorMatrix in="SourceAlpha" type="matrix" values="0 0 0 0 0 0 0 0 0 0 0 0 0 0 0 0 0 0 127 0" result="hardAlpha"/>
<feOffset dy="2.75"/>
<feGaussianBlur stdDeviation="1.89062"/>
<feComposite in2="hardAlpha" operator="out"/>
<feColorMatrix type="matrix" values="0 0 0 0 0.654167 0 0 0 0 0.654167 0 0 0 0 0.654167 0 0 0 0.35 0"/>
<feBlend mode="normal" in2="BackgroundImageFix" result="effect1_dropShadow_1_1991"/>
<feBlend mode="normal" in="SourceGraphic" in2="effect1_dropShadow_1_1991" result="shape"/>
</filter>
<linearGradient id="paint0_linear_1_1991" x1="10.9482" y1="5.60742" x2="13.4555" y2="8.67296" gradientUnits="userSpaceOnUse">
<stop stop-color="#FF6600"/>
<stop offset="1" stop-color="#D128A1"/>
</linearGradient>
</defs>
</svg>
