<svg width="40" height="40" viewBox="0 0 40 40" fill="none" xmlns="http://www.w3.org/2000/svg">
<path fill-rule="evenodd" clip-rule="evenodd" d="M17.8107 39.5934L10.0111 35.0902C9.72315 34.925 9.56257 34.6194 9.56222 34.3094V24.319L0.91852 19.3284C0.630391 19.163 0.46928 18.8615 0.46875 18.5515V9.48767C0.46875 8.79111 1.22626 8.37067 1.81453 8.71179L18.7783 18.5015C19.2081 18.7498 19.2081 18.7453 19.2081 19.2837V38.8546C19.2081 39.592 18.482 39.9811 17.8107 39.5934Z" fill="#FF6600"/>
<path fill-rule="evenodd" clip-rule="evenodd" d="M22.5185 39.5934L30.3181 35.0902C30.606 34.925 30.7666 34.6194 30.767 34.3094V24.319L39.4107 19.3284C39.6988 19.1631 39.8599 18.8615 39.8604 18.5515V9.48768C39.8604 8.79112 39.1029 8.37067 38.5147 8.7118L21.5509 18.5015C21.1211 18.7498 21.1211 18.7453 21.1211 19.2837V38.8546C21.1211 39.592 21.8472 39.9811 22.5185 39.5934Z" fill="#D128A1"/>
<path fill-rule="evenodd" clip-rule="evenodd" d="M37.496 5.07783L29.7181 0.587181C29.4311 0.420416 29.086 0.434193 28.8175 0.588769L20.1655 5.58413L11.534 0.600612C11.2547 0.436497 10.8809 0.441972 10.6122 0.599551L2.85128 5.0803C2.21407 5.44828 2.23138 6.36973 2.82107 6.70856L19.6917 16.4488C19.9797 16.615 20.3485 16.6166 20.6404 16.4481L37.4602 6.73717C38.0986 6.36849 38.1322 5.4451 37.496 5.07783Z" fill="url(#paint0_linear_34_244)"/>
<defs>
<linearGradient id="paint0_linear_34_244" x1="13.9813" y1="-1.46029" x2="26.3546" y2="13.2633" gradientUnits="userSpaceOnUse">
<stop stop-color="#FF6600"/>
<stop offset="1" stop-color="#D128A1"/>
</linearGradient>
</defs>
</svg>
