<svg width="17" height="22" viewBox="0 0 17 22" fill="none" xmlns="http://www.w3.org/2000/svg">
<path d="M8.5 0C6.24658 0.0029013 4.08631 0.873026 2.49289 2.41957C0.899482 3.96612 0.00298922 6.06285 0 8.24999C0 14.1728 7.91917 21.5909 8.25562 21.9037C8.32107 21.9655 8.40874 22 8.5 22C8.59126 22 8.67893 21.9655 8.74437 21.9037C9.08083 21.5909 17 14.1728 17 8.24999C16.997 6.06285 16.1005 3.96612 14.5071 2.41957C12.9137 0.873026 10.7534 0.0029013 8.5 0V0ZM8.5 12.0312C7.72948 12.0312 6.97626 11.8095 6.33559 11.394C5.69492 10.9785 5.19559 10.3879 4.90072 9.69701C4.60585 9.00608 4.5287 8.2458 4.67902 7.51231C4.82935 6.77882 5.20039 6.10506 5.74523 5.57625C6.29007 5.04743 6.98424 4.6873 7.73996 4.5414C8.49568 4.3955 9.279 4.47038 9.99087 4.75658C10.7027 5.04277 11.3112 5.52742 11.7393 6.14924C12.1673 6.77107 12.3958 7.50213 12.3958 8.24999C12.3952 9.25266 11.9846 10.2141 11.2541 10.9231C10.5236 11.6321 9.53305 12.0306 8.5 12.0312Z" fill="#FF6600"/>
<ellipse cx="8.52218" cy="8.0996" rx="6.35287" ry="6.16601" fill="white"/>
</svg>
