<svg width="16" height="14" viewBox="0 0 16 14" fill="none" xmlns="http://www.w3.org/2000/svg">
<path d="M10 3.03999L6 0.239993V10.96L10 13.76V3.03999ZM11 13.76L15.787 10.41C15.8529 10.3638 15.9066 10.3024 15.9437 10.2311C15.9808 10.1597 16.0001 10.0804 16 9.99999V0.499993C16.0001 0.408452 15.9751 0.318639 15.9276 0.240345C15.8802 0.162052 15.8122 0.0982816 15.731 0.0559873C15.6498 0.0136931 15.5586 -0.00550217 15.4672 0.000494215C15.3759 0.0064906 15.288 0.0374483 15.213 0.0899927L11 3.03999V13.76ZM0.213 3.58999L5 0.239993V10.96L0.787 13.91C0.712042 13.9625 0.624097 13.9935 0.532753 13.9995C0.441408 14.0055 0.350171 13.9863 0.268987 13.944C0.187802 13.9017 0.119787 13.8379 0.0723549 13.7596C0.0249231 13.6813 -0.000104501 13.5915 3.27961e-07 13.5V3.99999C-9.17075e-05 3.91956 0.0192223 3.84029 0.0563031 3.76891C0.0933839 3.69754 0.147137 3.63616 0.213 3.58999Z" fill="#D128A1"/>
</svg>
