<svg width="15" height="13" viewBox="0 0 15 13" fill="none" xmlns="http://www.w3.org/2000/svg">
<path d="M0.902458 5.43404C0.902458 5.43404 7.41276 2.69201 9.67064 1.72648C10.5362 1.34029 13.4715 0.104405 13.4715 0.104405C13.4715 0.104405 14.8262 -0.436251 14.7133 0.876823C14.6757 1.41753 14.3746 3.3099 14.0736 5.3568C13.622 8.25336 13.1328 11.4202 13.1328 11.4202C13.1328 11.4202 13.0575 12.3085 12.4178 12.463C11.7781 12.6175 10.7243 11.9223 10.5362 11.7678C10.3856 11.652 7.7138 9.91402 6.73538 9.06437C6.47195 8.83266 6.17091 8.36924 6.77298 7.82853C8.12775 6.55405 9.7459 4.97062 10.7243 3.9665C11.1759 3.50302 11.6275 2.42166 9.7459 3.73473C7.07407 5.62716 4.43985 7.40371 4.43985 7.40371C4.43985 7.40371 3.83772 7.78989 2.70878 7.4423C1.57979 7.09476 0.262677 6.63129 0.262677 6.63129C0.262677 6.63129 -0.640432 6.05199 0.902458 5.43404Z" fill="url(#paint0_linear_113_512)"/>
<defs>
<linearGradient id="paint0_linear_113_512" x1="4.90667" y1="2.59645" x2="9.2359" y2="10.5325" gradientUnits="userSpaceOnUse">
<stop stop-color="#FF6600"/>
<stop offset="1" stop-color="#D128A1"/>
</linearGradient>
</defs>
</svg>
