<svg width="24" height="24" viewBox="0 0 24 24" fill="none" xmlns="http://www.w3.org/2000/svg">
<path fill-rule="evenodd" clip-rule="evenodd" d="M13.9944 2.00906C14.321 1.79915 14.7537 1.87308 14.992 2.17948L18.1268 6.20994H19.68C20.6244 6.20994 21.39 6.97553 21.39 7.91994V10.4399H19.89V7.91994C19.89 7.80396 19.796 7.70994 19.68 7.70994H17.7677C17.7629 7.70999 17.7581 7.70999 17.7533 7.70994H7.69242C7.68461 7.71006 7.67679 7.71006 7.66899 7.70994H3.36C3.24402 7.70994 3.15 7.80396 3.15 7.91994V20.3999C3.15 20.5159 3.24402 20.6099 3.36 20.6099H19.68C19.796 20.6099 19.89 20.5159 19.89 20.3999V17.3099H18.48C16.6078 17.3099 15.09 15.7922 15.09 13.9199C15.09 12.0477 16.6078 10.5299 18.48 10.5299H21.6C22.0142 10.5299 22.35 10.8657 22.35 11.2799V16.5599C22.35 16.9742 22.0142 17.3099 21.6 17.3099H21.39V20.3999C21.39 21.3443 20.6244 22.1099 19.68 22.1099H3.36C2.41559 22.1099 1.65 21.3443 1.65 20.3999V7.91994C1.65 6.97553 2.41559 6.20994 3.36 6.20994H7.45972L13.9944 2.00906ZM10.2336 6.20994H16.2265L14.2289 3.64155L10.2336 6.20994ZM18.48 12.0299C17.4362 12.0299 16.59 12.8761 16.59 13.9199C16.59 14.9638 17.4362 15.8099 18.48 15.8099H20.85V12.0299H18.48Z" fill="#010B09"/>
</svg>
